<mxfile host="app.diagrams.net" modified="2023-10-08T22:58:20.440Z" agent="Mozilla/5.0 (Windows NT 10.0; Win64; x64) AppleWebKit/537.36 (KHTML, like Gecko) Chrome/117.0.0.0 Safari/537.36" etag="sjWzAgij7UMyH_qjC09m" version="22.0.4" type="google">
  <diagram id="C5RBs43oDa-KdzZeNtuy" name="Page-1">
    <mxGraphModel grid="1" page="1" gridSize="10" guides="1" tooltips="1" connect="1" arrows="1" fold="1" pageScale="1" pageWidth="827" pageHeight="1169" math="0" shadow="0">
      <root>
        <mxCell id="WIyWlLk6GJQsqaUBKTNV-0" />
        <mxCell id="WIyWlLk6GJQsqaUBKTNV-1" parent="WIyWlLk6GJQsqaUBKTNV-0" />
        <mxCell id="XExuQBEskavp-WSLXp5w-5" value="" style="edgeStyle=orthogonalEdgeStyle;rounded=0;orthogonalLoop=1;jettySize=auto;html=1;" edge="1" parent="WIyWlLk6GJQsqaUBKTNV-1" source="WIyWlLk6GJQsqaUBKTNV-3" target="XExuQBEskavp-WSLXp5w-4">
          <mxGeometry relative="1" as="geometry" />
        </mxCell>
        <mxCell id="WIyWlLk6GJQsqaUBKTNV-3" value="UsuÃ¡rio" style="rounded=1;whiteSpace=wrap;html=1;fontSize=12;glass=0;strokeWidth=1;shadow=0;fillColor=#B5739D;" vertex="1" parent="WIyWlLk6GJQsqaUBKTNV-1">
          <mxGeometry x="40" y="160" width="120" height="40" as="geometry" />
        </mxCell>
        <mxCell id="XExuQBEskavp-WSLXp5w-7" value="" style="edgeStyle=orthogonalEdgeStyle;rounded=0;orthogonalLoop=1;jettySize=auto;html=1;" edge="1" parent="WIyWlLk6GJQsqaUBKTNV-1" source="XExuQBEskavp-WSLXp5w-4" target="XExuQBEskavp-WSLXp5w-6">
          <mxGeometry relative="1" as="geometry" />
        </mxCell>
        <mxCell id="XExuQBEskavp-WSLXp5w-46" style="edgeStyle=orthogonalEdgeStyle;rounded=0;orthogonalLoop=1;jettySize=auto;html=1;exitX=0;exitY=0.5;exitDx=0;exitDy=0;entryX=1;entryY=0.5;entryDx=0;entryDy=0;" edge="1" parent="WIyWlLk6GJQsqaUBKTNV-1" source="XExuQBEskavp-WSLXp5w-4" target="WIyWlLk6GJQsqaUBKTNV-3">
          <mxGeometry relative="1" as="geometry" />
        </mxCell>
        <mxCell id="XExuQBEskavp-WSLXp5w-4" value="Site Fisiomais" style="rounded=1;whiteSpace=wrap;html=1;fontSize=12;glass=0;strokeWidth=1;shadow=0;fillColor=#B5739D;" vertex="1" parent="WIyWlLk6GJQsqaUBKTNV-1">
          <mxGeometry x="200" y="160" width="120" height="40" as="geometry" />
        </mxCell>
        <mxCell id="XExuQBEskavp-WSLXp5w-6" value="Netlify&lt;br&gt;(FrontEnd Deploy)" style="rounded=1;whiteSpace=wrap;html=1;fontSize=12;glass=0;strokeWidth=1;shadow=0;fillColor=#7EA6E0;" vertex="1" parent="WIyWlLk6GJQsqaUBKTNV-1">
          <mxGeometry x="360" y="160" width="120" height="40" as="geometry" />
        </mxCell>
        <mxCell id="XExuQBEskavp-WSLXp5w-11" value="" style="edgeStyle=orthogonalEdgeStyle;rounded=0;orthogonalLoop=1;jettySize=auto;html=1;entryX=0.5;entryY=0;entryDx=0;entryDy=0;" edge="1" parent="WIyWlLk6GJQsqaUBKTNV-1" source="XExuQBEskavp-WSLXp5w-8" target="XExuQBEskavp-WSLXp5w-4">
          <mxGeometry relative="1" as="geometry">
            <Array as="points">
              <mxPoint x="580" y="140" />
              <mxPoint x="260" y="140" />
            </Array>
          </mxGeometry>
        </mxCell>
        <mxCell id="XExuQBEskavp-WSLXp5w-16" style="edgeStyle=orthogonalEdgeStyle;rounded=0;orthogonalLoop=1;jettySize=auto;html=1;exitX=0;exitY=0.5;exitDx=0;exitDy=0;entryX=1;entryY=0.5;entryDx=0;entryDy=0;" edge="1" parent="WIyWlLk6GJQsqaUBKTNV-1" source="XExuQBEskavp-WSLXp5w-8" target="XExuQBEskavp-WSLXp5w-6">
          <mxGeometry relative="1" as="geometry" />
        </mxCell>
        <mxCell id="XExuQBEskavp-WSLXp5w-8" value="HTML" style="rounded=1;whiteSpace=wrap;html=1;fontSize=12;glass=0;strokeWidth=1;shadow=0;fillColor=#7EA6E0;" vertex="1" parent="WIyWlLk6GJQsqaUBKTNV-1">
          <mxGeometry x="520" y="160" width="120" height="40" as="geometry" />
        </mxCell>
        <mxCell id="XExuQBEskavp-WSLXp5w-19" style="edgeStyle=orthogonalEdgeStyle;rounded=0;orthogonalLoop=1;jettySize=auto;html=1;exitX=0.75;exitY=1;exitDx=0;exitDy=0;entryX=0.75;entryY=0;entryDx=0;entryDy=0;" edge="1" parent="WIyWlLk6GJQsqaUBKTNV-1" source="XExuQBEskavp-WSLXp5w-10" target="XExuQBEskavp-WSLXp5w-8">
          <mxGeometry relative="1" as="geometry" />
        </mxCell>
        <mxCell id="XExuQBEskavp-WSLXp5w-10" value="CSS" style="rounded=1;whiteSpace=wrap;html=1;fontSize=12;glass=0;strokeWidth=1;shadow=0;fillColor=#7EA6E0;" vertex="1" parent="WIyWlLk6GJQsqaUBKTNV-1">
          <mxGeometry x="520" y="90" width="120" height="40" as="geometry" />
        </mxCell>
        <mxCell id="XExuQBEskavp-WSLXp5w-20" style="edgeStyle=orthogonalEdgeStyle;rounded=0;orthogonalLoop=1;jettySize=auto;html=1;exitX=0.5;exitY=0;exitDx=0;exitDy=0;entryX=0.5;entryY=1;entryDx=0;entryDy=0;" edge="1" parent="WIyWlLk6GJQsqaUBKTNV-1" source="XExuQBEskavp-WSLXp5w-12" target="XExuQBEskavp-WSLXp5w-8">
          <mxGeometry relative="1" as="geometry" />
        </mxCell>
        <mxCell id="XExuQBEskavp-WSLXp5w-21" style="edgeStyle=orthogonalEdgeStyle;rounded=0;orthogonalLoop=1;jettySize=auto;html=1;exitX=0;exitY=0.5;exitDx=0;exitDy=0;entryX=0.5;entryY=1;entryDx=0;entryDy=0;" edge="1" parent="WIyWlLk6GJQsqaUBKTNV-1" source="XExuQBEskavp-WSLXp5w-12" target="XExuQBEskavp-WSLXp5w-4">
          <mxGeometry relative="1" as="geometry" />
        </mxCell>
        <mxCell id="XExuQBEskavp-WSLXp5w-30" value="" style="edgeStyle=orthogonalEdgeStyle;rounded=0;orthogonalLoop=1;jettySize=auto;html=1;" edge="1" parent="WIyWlLk6GJQsqaUBKTNV-1" source="XExuQBEskavp-WSLXp5w-12" target="XExuQBEskavp-WSLXp5w-29">
          <mxGeometry relative="1" as="geometry" />
        </mxCell>
        <mxCell id="XExuQBEskavp-WSLXp5w-12" value="JavaScript" style="rounded=1;whiteSpace=wrap;html=1;fontSize=12;glass=0;strokeWidth=1;shadow=0;fillColor=#7EA6E0;" vertex="1" parent="WIyWlLk6GJQsqaUBKTNV-1">
          <mxGeometry x="520" y="230" width="120" height="40" as="geometry" />
        </mxCell>
        <mxCell id="XExuQBEskavp-WSLXp5w-24" style="edgeStyle=orthogonalEdgeStyle;rounded=0;orthogonalLoop=1;jettySize=auto;html=1;exitX=0;exitY=0.5;exitDx=0;exitDy=0;entryX=1;entryY=0.5;entryDx=0;entryDy=0;" edge="1" parent="WIyWlLk6GJQsqaUBKTNV-1" source="XExuQBEskavp-WSLXp5w-22" target="XExuQBEskavp-WSLXp5w-10">
          <mxGeometry relative="1" as="geometry" />
        </mxCell>
        <mxCell id="XExuQBEskavp-WSLXp5w-26" style="edgeStyle=orthogonalEdgeStyle;rounded=0;orthogonalLoop=1;jettySize=auto;html=1;exitX=0;exitY=1;exitDx=0;exitDy=0;entryX=1;entryY=0.5;entryDx=0;entryDy=0;" edge="1" parent="WIyWlLk6GJQsqaUBKTNV-1" source="XExuQBEskavp-WSLXp5w-22" target="XExuQBEskavp-WSLXp5w-8">
          <mxGeometry relative="1" as="geometry" />
        </mxCell>
        <mxCell id="XExuQBEskavp-WSLXp5w-27" style="edgeStyle=orthogonalEdgeStyle;rounded=0;orthogonalLoop=1;jettySize=auto;html=1;exitX=0.25;exitY=1;exitDx=0;exitDy=0;" edge="1" parent="WIyWlLk6GJQsqaUBKTNV-1" source="XExuQBEskavp-WSLXp5w-22">
          <mxGeometry relative="1" as="geometry">
            <mxPoint x="640" y="250" as="targetPoint" />
            <Array as="points">
              <mxPoint x="700" y="250" />
              <mxPoint x="640" y="250" />
            </Array>
          </mxGeometry>
        </mxCell>
        <mxCell id="XExuQBEskavp-WSLXp5w-22" value="ReactJS" style="rounded=1;whiteSpace=wrap;html=1;fontSize=12;glass=0;strokeWidth=1;shadow=0;fillColor=#7EA6E0;" vertex="1" parent="WIyWlLk6GJQsqaUBKTNV-1">
          <mxGeometry x="670" y="90" width="120" height="40" as="geometry" />
        </mxCell>
        <mxCell id="XExuQBEskavp-WSLXp5w-34" value="" style="edgeStyle=orthogonalEdgeStyle;rounded=0;orthogonalLoop=1;jettySize=auto;html=1;" edge="1" parent="WIyWlLk6GJQsqaUBKTNV-1" source="XExuQBEskavp-WSLXp5w-29" target="XExuQBEskavp-WSLXp5w-33">
          <mxGeometry relative="1" as="geometry" />
        </mxCell>
        <mxCell id="XExuQBEskavp-WSLXp5w-45" style="edgeStyle=orthogonalEdgeStyle;rounded=0;orthogonalLoop=1;jettySize=auto;html=1;exitX=0.5;exitY=1;exitDx=0;exitDy=0;entryX=1;entryY=0.5;entryDx=0;entryDy=0;" edge="1" parent="WIyWlLk6GJQsqaUBKTNV-1" source="XExuQBEskavp-WSLXp5w-29" target="XExuQBEskavp-WSLXp5w-12">
          <mxGeometry relative="1" as="geometry" />
        </mxCell>
        <mxCell id="XExuQBEskavp-WSLXp5w-29" value="(Backend Deploy)" style="rounded=1;whiteSpace=wrap;html=1;fontSize=12;glass=0;strokeWidth=1;shadow=0;fillColor=#67AB9F;" vertex="1" parent="WIyWlLk6GJQsqaUBKTNV-1">
          <mxGeometry x="827" y="160" width="120" height="40" as="geometry" />
        </mxCell>
        <mxCell id="XExuQBEskavp-WSLXp5w-36" value="" style="edgeStyle=orthogonalEdgeStyle;rounded=0;orthogonalLoop=1;jettySize=auto;html=1;" edge="1" parent="WIyWlLk6GJQsqaUBKTNV-1" source="XExuQBEskavp-WSLXp5w-33" target="XExuQBEskavp-WSLXp5w-35">
          <mxGeometry relative="1" as="geometry" />
        </mxCell>
        <mxCell id="XExuQBEskavp-WSLXp5w-44" style="edgeStyle=orthogonalEdgeStyle;rounded=0;orthogonalLoop=1;jettySize=auto;html=1;exitX=0.5;exitY=1;exitDx=0;exitDy=0;entryX=0.5;entryY=0;entryDx=0;entryDy=0;" edge="1" parent="WIyWlLk6GJQsqaUBKTNV-1" source="XExuQBEskavp-WSLXp5w-33" target="XExuQBEskavp-WSLXp5w-29">
          <mxGeometry relative="1" as="geometry" />
        </mxCell>
        <mxCell id="XExuQBEskavp-WSLXp5w-33" value="SpringBoot" style="rounded=1;whiteSpace=wrap;html=1;fontSize=12;glass=0;strokeWidth=1;shadow=0;fillColor=#67AB9F;" vertex="1" parent="WIyWlLk6GJQsqaUBKTNV-1">
          <mxGeometry x="827" y="90" width="120" height="40" as="geometry" />
        </mxCell>
        <mxCell id="XExuQBEskavp-WSLXp5w-38" value="" style="edgeStyle=orthogonalEdgeStyle;rounded=0;orthogonalLoop=1;jettySize=auto;html=1;" edge="1" parent="WIyWlLk6GJQsqaUBKTNV-1" source="XExuQBEskavp-WSLXp5w-35" target="XExuQBEskavp-WSLXp5w-37">
          <mxGeometry relative="1" as="geometry" />
        </mxCell>
        <mxCell id="XExuQBEskavp-WSLXp5w-43" style="edgeStyle=orthogonalEdgeStyle;rounded=0;orthogonalLoop=1;jettySize=auto;html=1;exitX=0;exitY=0.5;exitDx=0;exitDy=0;entryX=1;entryY=0.5;entryDx=0;entryDy=0;" edge="1" parent="WIyWlLk6GJQsqaUBKTNV-1" source="XExuQBEskavp-WSLXp5w-35" target="XExuQBEskavp-WSLXp5w-33">
          <mxGeometry relative="1" as="geometry" />
        </mxCell>
        <mxCell id="XExuQBEskavp-WSLXp5w-35" value="Hibernate" style="rounded=1;whiteSpace=wrap;html=1;fontSize=12;glass=0;strokeWidth=1;shadow=0;fillColor=#67AB9F;" vertex="1" parent="WIyWlLk6GJQsqaUBKTNV-1">
          <mxGeometry x="1000" y="90" width="120" height="40" as="geometry" />
        </mxCell>
        <mxCell id="XExuQBEskavp-WSLXp5w-40" value="" style="edgeStyle=orthogonalEdgeStyle;rounded=0;orthogonalLoop=1;jettySize=auto;html=1;" edge="1" parent="WIyWlLk6GJQsqaUBKTNV-1" source="XExuQBEskavp-WSLXp5w-37" target="XExuQBEskavp-WSLXp5w-39">
          <mxGeometry relative="1" as="geometry" />
        </mxCell>
        <mxCell id="XExuQBEskavp-WSLXp5w-42" style="edgeStyle=orthogonalEdgeStyle;rounded=0;orthogonalLoop=1;jettySize=auto;html=1;exitX=0.5;exitY=0;exitDx=0;exitDy=0;entryX=0.5;entryY=1;entryDx=0;entryDy=0;" edge="1" parent="WIyWlLk6GJQsqaUBKTNV-1" source="XExuQBEskavp-WSLXp5w-37" target="XExuQBEskavp-WSLXp5w-35">
          <mxGeometry relative="1" as="geometry" />
        </mxCell>
        <mxCell id="XExuQBEskavp-WSLXp5w-37" value="MySQL" style="rounded=1;whiteSpace=wrap;html=1;fontSize=12;glass=0;strokeWidth=1;shadow=0;fillColor=#67AB9F;" vertex="1" parent="WIyWlLk6GJQsqaUBKTNV-1">
          <mxGeometry x="1000" y="160" width="120" height="40" as="geometry" />
        </mxCell>
        <mxCell id="XExuQBEskavp-WSLXp5w-41" style="edgeStyle=orthogonalEdgeStyle;rounded=0;orthogonalLoop=1;jettySize=auto;html=1;exitX=0.5;exitY=0;exitDx=0;exitDy=0;entryX=0.5;entryY=1;entryDx=0;entryDy=0;" edge="1" parent="WIyWlLk6GJQsqaUBKTNV-1" source="XExuQBEskavp-WSLXp5w-39" target="XExuQBEskavp-WSLXp5w-37">
          <mxGeometry relative="1" as="geometry" />
        </mxCell>
        <mxCell id="XExuQBEskavp-WSLXp5w-39" value="Bando de Dados" style="rounded=1;whiteSpace=wrap;html=1;fontSize=12;glass=0;strokeWidth=1;shadow=0;fillColor=#67AB9F;" vertex="1" parent="WIyWlLk6GJQsqaUBKTNV-1">
          <mxGeometry x="1000" y="230" width="120" height="40" as="geometry" />
        </mxCell>
      </root>
    </mxGraphModel>
  </diagram>
</mxfile>
